<mxfile host="app.diagrams.net" modified="2024-02-04T03:50:55.763Z" agent="Mozilla/5.0 (Macintosh; Intel Mac OS X 10_15_7) AppleWebKit/605.1.15 (KHTML, like Gecko) Version/17.2.1 Safari/605.1.15" version="23.1.0" etag="hNsY3fkKLyV95vMFXtj5" type="github">
  <diagram name="第 1 页" id="p_EQTlKT5X2sS5g6fVc1">
    <mxGraphModel>
      <root>
        <mxCell id="0" />
        <mxCell id="1" parent="0" />
      </root>
    </mxGraphModel>
  </diagram>
</mxfile>
